<svg width="720" height="720" viewBox="0 0 720 720" fill="none" xmlns="http://www.w3.org/2000/svg">
<rect width="720" height="720" fill="#253649"/>
<circle cx="360" cy="360" r="325" fill="white"/>
<path d="M191.56 439V411H202.04C204.413 411 206.453 411.387 208.16 412.16C209.867 412.907 211.173 414 212.08 415.44C213.013 416.853 213.48 418.573 213.48 420.6C213.48 422.573 213.013 424.28 212.08 425.72C211.173 427.133 209.867 428.227 208.16 429C206.453 429.773 204.413 430.16 202.04 430.16H193.2L194.52 428.76V439H191.56ZM194.52 429L193.2 427.56H201.96C204.76 427.56 206.88 426.96 208.32 425.76C209.787 424.533 210.52 422.813 210.52 420.6C210.52 418.36 209.787 416.627 208.32 415.4C206.88 414.173 204.76 413.56 201.96 413.56H193.2L194.52 412.16V429ZM219.88 439V411H230.36C232.734 411 234.774 411.387 236.48 412.16C238.187 412.907 239.494 414 240.4 415.44C241.334 416.853 241.8 418.573 241.8 420.6C241.8 422.573 241.334 424.28 240.4 425.72C239.494 427.133 238.187 428.227 236.48 429C234.774 429.747 232.734 430.12 230.36 430.12H221.52L222.84 428.76V439H219.88ZM239 439L231.8 428.84H235L242.24 439H239ZM222.84 429L221.52 427.6H230.28C233.08 427.6 235.2 426.987 236.64 425.76C238.107 424.533 238.84 422.813 238.84 420.6C238.84 418.36 238.107 416.627 236.64 415.4C235.2 414.173 233.08 413.56 230.28 413.56H221.52L222.84 412.16V429ZM261.027 439.24C258.92 439.24 256.96 438.893 255.147 438.2C253.36 437.48 251.8 436.48 250.467 435.2C249.16 433.893 248.133 432.387 247.387 430.68C246.667 428.947 246.307 427.053 246.307 425C246.307 422.947 246.667 421.067 247.387 419.36C248.133 417.627 249.16 416.12 250.467 414.84C251.8 413.533 253.36 412.533 255.147 411.84C256.933 411.12 258.893 410.76 261.027 410.76C263.133 410.76 265.08 411.12 266.867 411.84C268.653 412.533 270.2 413.52 271.507 414.8C272.84 416.08 273.867 417.587 274.587 419.32C275.333 421.053 275.707 422.947 275.707 425C275.707 427.053 275.333 428.947 274.587 430.68C273.867 432.413 272.84 433.92 271.507 435.2C270.2 436.48 268.653 437.48 266.867 438.2C265.08 438.893 263.133 439.24 261.027 439.24ZM261.027 436.6C262.707 436.6 264.253 436.32 265.667 435.76C267.107 435.173 268.347 434.36 269.387 433.32C270.453 432.253 271.28 431.027 271.867 429.64C272.453 428.227 272.747 426.68 272.747 425C272.747 423.32 272.453 421.787 271.867 420.4C271.28 418.987 270.453 417.76 269.387 416.72C268.347 415.653 267.107 414.84 265.667 414.28C264.253 413.693 262.707 413.4 261.027 413.4C259.347 413.4 257.787 413.693 256.347 414.28C254.907 414.84 253.653 415.653 252.587 416.72C251.547 417.76 250.72 418.987 250.107 420.4C249.52 421.787 249.227 423.32 249.227 425C249.227 426.653 249.52 428.187 250.107 429.6C250.72 431.013 251.547 432.253 252.587 433.32C253.653 434.36 254.907 435.173 256.347 435.76C257.787 436.32 259.347 436.6 261.027 436.6ZM284.981 424.56H299.781V427.12H284.981V424.56ZM285.301 439H282.341V411H301.541V413.56H285.301V439ZM310.294 423.52H325.094V426.04H310.294V423.52ZM310.614 436.44H327.454V439H307.654V411H326.854V413.56H310.614V436.44ZM342.132 439.24C340.052 439.24 338.052 438.907 336.132 438.24C334.238 437.547 332.772 436.667 331.732 435.6L332.892 433.32C333.878 434.28 335.198 435.093 336.852 435.76C338.532 436.4 340.292 436.72 342.132 436.72C343.892 436.72 345.318 436.507 346.412 436.08C347.532 435.627 348.345 435.027 348.852 434.28C349.385 433.533 349.652 432.707 349.652 431.8C349.652 430.707 349.332 429.827 348.692 429.16C348.078 428.493 347.265 427.973 346.252 427.6C345.238 427.2 344.118 426.853 342.892 426.56C341.665 426.267 340.438 425.96 339.212 425.64C337.985 425.293 336.852 424.84 335.812 424.28C334.798 423.72 333.972 422.987 333.332 422.08C332.718 421.147 332.412 419.933 332.412 418.44C332.412 417.053 332.772 415.787 333.492 414.64C334.238 413.467 335.372 412.533 336.892 411.84C338.412 411.12 340.358 410.76 342.732 410.76C344.305 410.76 345.865 410.987 347.412 411.44C348.958 411.867 350.292 412.467 351.412 413.24L350.412 415.6C349.212 414.8 347.932 414.213 346.572 413.84C345.238 413.467 343.945 413.28 342.692 413.28C341.012 413.28 339.625 413.507 338.532 413.96C337.438 414.413 336.625 415.027 336.092 415.8C335.585 416.547 335.332 417.4 335.332 418.36C335.332 419.453 335.638 420.333 336.252 421C336.892 421.667 337.718 422.187 338.732 422.56C339.772 422.933 340.905 423.267 342.132 423.56C343.358 423.853 344.572 424.173 345.772 424.52C346.998 424.867 348.118 425.32 349.132 425.88C350.172 426.413 350.998 427.133 351.612 428.04C352.252 428.947 352.572 430.133 352.572 431.6C352.572 432.96 352.198 434.227 351.452 435.4C350.705 436.547 349.558 437.48 348.012 438.2C346.492 438.893 344.532 439.24 342.132 439.24ZM366.741 439.24C364.661 439.24 362.661 438.907 360.741 438.24C358.848 437.547 357.381 436.667 356.341 435.6L357.501 433.32C358.488 434.28 359.808 435.093 361.461 435.76C363.141 436.4 364.901 436.72 366.741 436.72C368.501 436.72 369.928 436.507 371.021 436.08C372.141 435.627 372.954 435.027 373.461 434.28C373.994 433.533 374.261 432.707 374.261 431.8C374.261 430.707 373.941 429.827 373.301 429.16C372.688 428.493 371.874 427.973 370.861 427.6C369.848 427.2 368.728 426.853 367.501 426.56C366.274 426.267 365.048 425.96 363.821 425.64C362.594 425.293 361.461 424.84 360.421 424.28C359.408 423.72 358.581 422.987 357.941 422.08C357.328 421.147 357.021 419.933 357.021 418.44C357.021 417.053 357.381 415.787 358.101 414.64C358.848 413.467 359.981 412.533 361.501 411.84C363.021 411.12 364.968 410.76 367.341 410.76C368.914 410.76 370.474 410.987 372.021 411.44C373.568 411.867 374.901 412.467 376.021 413.24L375.021 415.6C373.821 414.8 372.541 414.213 371.181 413.84C369.848 413.467 368.554 413.28 367.301 413.28C365.621 413.28 364.234 413.507 363.141 413.96C362.048 414.413 361.234 415.027 360.701 415.8C360.194 416.547 359.941 417.4 359.941 418.36C359.941 419.453 360.248 420.333 360.861 421C361.501 421.667 362.328 422.187 363.341 422.56C364.381 422.933 365.514 423.267 366.741 423.56C367.968 423.853 369.181 424.173 370.381 424.52C371.608 424.867 372.728 425.32 373.741 425.88C374.781 426.413 375.608 427.133 376.221 428.04C376.861 428.947 377.181 430.133 377.181 431.6C377.181 432.96 376.808 434.227 376.061 435.4C375.314 436.547 374.168 437.48 372.621 438.2C371.101 438.893 369.141 439.24 366.741 439.24ZM383.63 439V411H386.59V439H383.63ZM407.941 439.24C405.834 439.24 403.874 438.893 402.061 438.2C400.274 437.48 398.714 436.48 397.381 435.2C396.074 433.893 395.047 432.387 394.301 430.68C393.581 428.947 393.221 427.053 393.221 425C393.221 422.947 393.581 421.067 394.301 419.36C395.047 417.627 396.074 416.12 397.381 414.84C398.714 413.533 400.274 412.533 402.061 411.84C403.847 411.12 405.807 410.76 407.941 410.76C410.047 410.76 411.994 411.12 413.781 411.84C415.567 412.533 417.114 413.52 418.421 414.8C419.754 416.08 420.781 417.587 421.501 419.32C422.247 421.053 422.621 422.947 422.621 425C422.621 427.053 422.247 428.947 421.501 430.68C420.781 432.413 419.754 433.92 418.421 435.2C417.114 436.48 415.567 437.48 413.781 438.2C411.994 438.893 410.047 439.24 407.941 439.24ZM407.941 436.6C409.621 436.6 411.167 436.32 412.581 435.76C414.021 435.173 415.261 434.36 416.301 433.32C417.367 432.253 418.194 431.027 418.781 429.64C419.367 428.227 419.661 426.68 419.661 425C419.661 423.32 419.367 421.787 418.781 420.4C418.194 418.987 417.367 417.76 416.301 416.72C415.261 415.653 414.021 414.84 412.581 414.28C411.167 413.693 409.621 413.4 407.941 413.4C406.261 413.4 404.701 413.693 403.261 414.28C401.821 414.84 400.567 415.653 399.501 416.72C398.461 417.76 397.634 418.987 397.021 420.4C396.434 421.787 396.141 423.32 396.141 425C396.141 426.653 396.434 428.187 397.021 429.6C397.634 431.013 398.461 432.253 399.501 433.32C400.567 434.36 401.821 435.173 403.261 435.76C404.701 436.32 406.261 436.6 407.941 436.6ZM429.255 439V411H431.695L451.015 435.32H449.735V411H452.655V439H450.215L430.935 414.68H432.215V439H429.255ZM457.314 439L470.114 411H473.034L485.834 439H482.714L470.954 412.72H472.154L460.394 439H457.314ZM462.354 431.52L463.234 429.12H479.514L480.394 431.52H462.354ZM490.466 439V411H493.426V436.44H509.106V439H490.466ZM521.428 439.24C519.348 439.24 517.348 438.907 515.428 438.24C513.535 437.547 512.068 436.667 511.028 435.6L512.188 433.32C513.175 434.28 514.495 435.093 516.148 435.76C517.828 436.4 519.588 436.72 521.428 436.72C523.188 436.72 524.615 436.507 525.708 436.08C526.828 435.627 527.642 435.027 528.148 434.28C528.682 433.533 528.948 432.707 528.948 431.8C528.948 430.707 528.628 429.827 527.988 429.16C527.375 428.493 526.562 427.973 525.548 427.6C524.535 427.2 523.415 426.853 522.188 426.56C520.962 426.267 519.735 425.96 518.508 425.64C517.282 425.293 516.148 424.84 515.108 424.28C514.095 423.72 513.268 422.987 512.628 422.08C512.015 421.147 511.708 419.933 511.708 418.44C511.708 417.053 512.068 415.787 512.788 414.64C513.535 413.467 514.668 412.533 516.188 411.84C517.708 411.12 519.655 410.76 522.028 410.76C523.602 410.76 525.162 410.987 526.708 411.44C528.255 411.867 529.588 412.467 530.708 413.24L529.708 415.6C528.508 414.8 527.228 414.213 525.868 413.84C524.535 413.467 523.242 413.28 521.988 413.28C520.308 413.28 518.922 413.507 517.828 413.96C516.735 414.413 515.922 415.027 515.388 415.8C514.882 416.547 514.628 417.4 514.628 418.36C514.628 419.453 514.935 420.333 515.548 421C516.188 421.667 517.015 422.187 518.028 422.56C519.068 422.933 520.202 423.267 521.428 423.56C522.655 423.853 523.868 424.173 525.068 424.52C526.295 424.867 527.415 425.32 528.428 425.88C529.468 426.413 530.295 427.133 530.908 428.04C531.548 428.947 531.868 430.133 531.868 431.6C531.868 432.96 531.495 434.227 530.748 435.4C530.002 436.547 528.855 437.48 527.308 438.2C525.788 438.893 523.828 439.24 521.428 439.24Z" fill="#253649"/>
<path d="M129.97 382.11C127.403 382.11 124.983 381.817 122.71 381.23C120.363 380.717 118.383 379.873 116.77 378.7L120.73 368.47C122.857 370.01 125.533 370.78 128.76 370.78C131.253 370.78 133.197 369.973 134.59 368.36C135.983 366.82 136.68 364.51 136.68 361.43V301.26H150.43V361.1C150.43 367.553 148.633 372.65 145.04 376.39C141.52 380.203 136.497 382.11 129.97 382.11ZM143.5 291.58C140.933 291.58 138.807 290.773 137.12 289.16C135.507 287.547 134.7 285.603 134.7 283.33C134.7 280.983 135.507 279.04 137.12 277.5C138.807 275.887 140.933 275.08 143.5 275.08C146.067 275.08 148.157 275.85 149.77 277.39C151.457 278.857 152.3 280.727 152.3 283C152.3 285.42 151.493 287.473 149.88 289.16C148.267 290.773 146.14 291.58 143.5 291.58ZM194.861 360.77C188.848 360.77 183.495 359.487 178.801 356.92C174.108 354.28 170.405 350.687 167.691 346.14C164.978 341.593 163.621 336.423 163.621 330.63C163.621 324.763 164.978 319.593 167.691 315.12C170.405 310.573 174.108 307.017 178.801 304.45C183.495 301.883 188.848 300.6 194.861 300.6C200.948 300.6 206.338 301.883 211.031 304.45C215.798 307.017 219.501 310.537 222.141 315.01C224.855 319.483 226.211 324.69 226.211 330.63C226.211 336.423 224.855 341.593 222.141 346.14C219.501 350.687 215.798 354.28 211.031 356.92C206.338 359.487 200.948 360.77 194.861 360.77ZM194.861 349C198.235 349 201.241 348.267 203.881 346.8C206.521 345.333 208.575 343.207 210.041 340.42C211.581 337.633 212.351 334.37 212.351 330.63C212.351 326.817 211.581 323.553 210.041 320.84C208.575 318.053 206.521 315.927 203.881 314.46C201.241 312.993 198.271 312.26 194.971 312.26C191.598 312.26 188.591 312.993 185.951 314.46C183.385 315.927 181.331 318.053 179.791 320.84C178.251 323.553 177.481 326.817 177.481 330.63C177.481 334.37 178.251 337.633 179.791 340.42C181.331 343.207 183.385 345.333 185.951 346.8C188.591 348.267 191.561 349 194.861 349ZM271.92 360.77C266.933 360.77 262.497 359.67 258.61 357.47C254.723 355.27 251.643 351.97 249.37 347.57C247.17 343.097 246.07 337.45 246.07 330.63C246.07 323.737 247.207 318.09 249.48 313.69C251.827 309.29 254.943 306.027 258.83 303.9C262.79 301.7 267.153 300.6 271.92 300.6C277.713 300.6 282.81 301.847 287.21 304.34C291.683 306.833 295.203 310.317 297.77 314.79C300.41 319.263 301.73 324.543 301.73 330.63C301.73 336.717 300.41 341.997 297.77 346.47C295.203 350.943 291.683 354.463 287.21 357.03C282.81 359.523 277.713 360.77 271.92 360.77ZM239.36 360V278.38H253.11V314.9L252.01 330.52L252.45 346.14V360H239.36ZM270.38 349C273.68 349 276.613 348.267 279.18 346.8C281.82 345.333 283.91 343.207 285.45 340.42C286.99 337.633 287.76 334.37 287.76 330.63C287.76 326.817 286.99 323.553 285.45 320.84C283.91 318.053 281.82 315.927 279.18 314.46C276.613 312.993 273.68 312.26 270.38 312.26C267.08 312.26 264.11 312.993 261.47 314.46C258.83 315.927 256.74 318.053 255.2 320.84C253.66 323.553 252.89 326.817 252.89 330.63C252.89 334.37 253.66 337.633 255.2 340.42C256.74 343.207 258.83 345.333 261.47 346.8C264.11 348.267 267.08 349 270.38 349ZM347.33 360.77C342.343 360.77 337.907 359.67 334.02 357.47C330.133 355.27 327.053 351.97 324.78 347.57C322.58 343.097 321.48 337.45 321.48 330.63C321.48 323.737 322.617 318.09 324.89 313.69C327.237 309.29 330.353 306.027 334.24 303.9C338.2 301.7 342.563 300.6 347.33 300.6C353.123 300.6 358.22 301.847 362.62 304.34C367.093 306.833 370.613 310.317 373.18 314.79C375.82 319.263 377.14 324.543 377.14 330.63C377.14 336.717 375.82 341.997 373.18 346.47C370.613 350.943 367.093 354.463 362.62 357.03C358.22 359.523 353.123 360.77 347.33 360.77ZM314.77 360V278.38H328.52V314.9L327.42 330.52L327.86 346.14V360H314.77ZM345.79 349C349.09 349 352.023 348.267 354.59 346.8C357.23 345.333 359.32 343.207 360.86 340.42C362.4 337.633 363.17 334.37 363.17 330.63C363.17 326.817 362.4 323.553 360.86 320.84C359.32 318.053 357.23 315.927 354.59 314.46C352.023 312.993 349.09 312.26 345.79 312.26C342.49 312.26 339.52 312.993 336.88 314.46C334.24 315.927 332.15 318.053 330.61 320.84C329.07 323.553 328.3 326.817 328.3 330.63C328.3 334.37 329.07 337.633 330.61 340.42C332.15 343.207 334.24 345.333 336.88 346.8C339.52 348.267 342.49 349 345.79 349ZM416.58 360.77C410.567 360.77 405.213 359.487 400.52 356.92C395.827 354.28 392.123 350.687 389.41 346.14C386.697 341.593 385.34 336.423 385.34 330.63C385.34 324.763 386.697 319.593 389.41 315.12C392.123 310.573 395.827 307.017 400.52 304.45C405.213 301.883 410.567 300.6 416.58 300.6C422.667 300.6 428.057 301.883 432.75 304.45C437.517 307.017 441.22 310.537 443.86 315.01C446.573 319.483 447.93 324.69 447.93 330.63C447.93 336.423 446.573 341.593 443.86 346.14C441.22 350.687 437.517 354.28 432.75 356.92C428.057 359.487 422.667 360.77 416.58 360.77ZM416.58 349C419.953 349 422.96 348.267 425.6 346.8C428.24 345.333 430.293 343.207 431.76 340.42C433.3 337.633 434.07 334.37 434.07 330.63C434.07 326.817 433.3 323.553 431.76 320.84C430.293 318.053 428.24 315.927 425.6 314.46C422.96 312.993 419.99 312.26 416.69 312.26C413.317 312.26 410.31 312.993 407.67 314.46C405.103 315.927 403.05 318.053 401.51 320.84C399.97 323.553 399.2 326.817 399.2 330.63C399.2 334.37 399.97 337.633 401.51 340.42C403.05 343.207 405.103 345.333 407.67 346.8C410.31 348.267 413.28 349 416.58 349ZM487.479 360.77C481.465 360.77 476.112 359.487 471.419 356.92C466.725 354.28 463.022 350.687 460.309 346.14C457.595 341.593 456.239 336.423 456.239 330.63C456.239 324.763 457.595 319.593 460.309 315.12C463.022 310.573 466.725 307.017 471.419 304.45C476.112 301.883 481.465 300.6 487.479 300.6C493.565 300.6 498.955 301.883 503.649 304.45C508.415 307.017 512.119 310.537 514.759 315.01C517.472 319.483 518.829 324.69 518.829 330.63C518.829 336.423 517.472 341.593 514.759 346.14C512.119 350.687 508.415 354.28 503.649 356.92C498.955 359.487 493.565 360.77 487.479 360.77ZM487.479 349C490.852 349 493.859 348.267 496.499 346.8C499.139 345.333 501.192 343.207 502.659 340.42C504.199 337.633 504.969 334.37 504.969 330.63C504.969 326.817 504.199 323.553 502.659 320.84C501.192 318.053 499.139 315.927 496.499 314.46C493.859 312.993 490.889 312.26 487.589 312.26C484.215 312.26 481.209 312.993 478.569 314.46C476.002 315.927 473.949 318.053 472.409 320.84C470.869 323.553 470.099 326.817 470.099 330.63C470.099 334.37 470.869 337.633 472.409 340.42C473.949 343.207 476.002 345.333 478.569 346.8C481.209 348.267 484.179 349 487.479 349ZM543.197 346.91L543.527 329.64L574.217 301.26H590.717L564.647 327.44L557.387 333.49L543.197 346.91ZM531.977 360V278.38H545.727V360H531.977ZM576.307 360L554.857 333.49L563.547 322.49L593.027 360H576.307Z" fill="#253649"/>
</svg>
